<?xml version="1.0" standalone="no"?>
<!DOCTYPE svg PUBLIC "-//W3C//DTD SVG 20010904//EN"
 "http://www.w3.org/TR/2001/REC-SVG-20010904/DTD/svg10.dtd">
<svg version="1.0" xmlns="http://www.w3.org/2000/svg"
 width="3075.000000pt" height="500.000000pt" viewBox="0 0 3075.000000 500.000000"
 preserveAspectRatio="xMidYMid meet">
<metadata>
Created by potrace 1.16, written by Peter Selinger 2001-2019
</metadata>
<g transform="translate(0.000000,500.000000) scale(0.100000,-0.100000)"
fill="#000000" stroke="none">
<path d="M2557 4974 c-14 -14 -27 -35 -29 -47 -2 -18 -9 -21 -35 -19 -37 4
-42 -7 -14 -32 11 -10 27 -33 36 -52 13 -27 22 -34 46 -34 68 0 144 -52 181
-125 26 -50 33 -55 85 -55 34 0 46 5 67 31 14 17 26 37 26 45 0 10 13 14 44
14 37 0 48 5 70 31 58 68 13 174 -73 174 -37 0 -42 2 -52 32 -14 44 -44 63
-97 63 -32 0 -49 -6 -66 -23 l-23 -23 -27 23 c-39 33 -104 32 -139 -3z"/>
<path d="M1996 4896 c-52 -19 -91 -59 -105 -106 l-12 -40 -58 0 c-102 0 -166
-65 -166 -171 0 -107 75 -176 181 -167 l53 5 16 -44 c18 -46 62 -87 106 -98
20 -5 68 15 218 89 106 53 202 96 214 96 11 0 60 -8 108 -17 82 -16 89 -16
114 1 33 21 64 88 65 136 0 49 -38 120 -79 147 -25 17 -48 23 -91 23 l-58 0
-6 35 c-9 46 -65 101 -116 115 -54 14 -115 -2 -158 -43 l-32 -31 -16 22 c-33
48 -116 70 -178 48z"/>
<path d="M1983 4202 c-238 -119 -433 -219 -433 -222 0 -3 156 -15 348 -27
l347 -21 290 201 c336 232 300 205 292 213 -10 11 -337 74 -376 73 -26 0 -155
-60 -468 -217z"/>
<path d="M1000 4315 l0 -25 213 2 c204 3 212 4 212 23 0 19 -8 20 -212 23
l-213 2 0 -25z"/>
<path d="M878 4258 c-13 -36 0 -38 212 -38 212 0 225 2 212 38 -6 18 -418 18
-424 0z"/>
<path d="M1000 4176 c0 -13 7 -27 16 -30 9 -3 100 -6 204 -6 154 0 190 3 200
15 7 8 10 22 6 30 -4 13 -37 15 -216 15 l-210 0 0 -24z"/>
<path d="M3382 4138 c-5 -13 -31 -87 -58 -165 l-48 -141 -51 4 c-27 3 -311 20
-630 39 -319 19 -809 48 -1090 65 -553 34 -617 33 -777 -11 -144 -40 -269
-126 -309 -214 -37 -81 -17 -135 65 -173 101 -48 65 -49 1620 37 797 44 1451
82 1453 84 2 3 0 114 -4 248 l-8 244 -78 3 c-73 3 -78 2 -85 -20z"/>
<path d="M1888 3532 c-148 -9 -268 -18 -268 -22 0 -3 194 -102 432 -219 l432
-213 198 39 c109 21 198 40 198 43 0 3 -126 92 -279 198 l-278 192 -84 -2
c-46 0 -204 -8 -351 -16z"/>
<path d="M3124 3455 c-4 -8 -4 -22 0 -30 8 -22 397 -22 416 0 7 8 10 22 6 30
-8 22 -414 23 -422 0z"/>
<path d="M1585 3399 c-290 -42 -578 -186 -820 -412 -69 -64 -70 -64 -55 -92
24 -44 130 -149 190 -187 30 -20 90 -50 132 -67 50 -21 88 -45 108 -67 29 -33
30 -38 30 -128 0 -141 1 -142 272 -236 95 -33 188 -60 208 -60 22 0 50 10 75
27 60 41 116 42 200 4 90 -41 130 -39 162 8 27 40 28 72 9 192 -30 180 22 247
239 309 170 49 211 80 251 191 18 51 46 180 41 186 -3 2 -26 -1 -53 -7 -27 -7
-63 -12 -80 -12 -19 0 -156 63 -392 181 -396 198 -373 191 -517 170z"/>
<path d="M2996 3384 c-15 -40 7 -45 218 -42 l201 3 0 25 0 25 -206 3 c-184 2
-207 1 -213 -14z"/>
<path d="M209 3351 c-16 -16 -29 -39 -29 -50 0 -18 -6 -21 -46 -21 -85 0 -130
-80 -89 -159 17 -34 61 -54 107 -49 28 2 33 -1 36 -19 5 -32 58 -73 93 -73 34
0 85 24 91 42 3 9 15 4 37 -15 54 -45 135 -29 161 33 10 24 19 30 42 30 70 0
116 56 105 128 -9 52 -46 82 -103 82 -38 0 -44 3 -44 21 0 11 -13 34 -29 50
-38 38 -96 40 -138 5 l-28 -24 -28 24 c-41 35 -99 33 -138 -5z"/>
<path d="M3124 3315 c-4 -8 -4 -22 0 -30 5 -13 35 -15 213 -13 l208 3 0 25 0
25 -208 3 c-178 2 -208 0 -213 -13z"/>
<path d="M2683 3083 c-13 -3 -25 -14 -28 -26 -2 -12 -9 -49 -16 -82 -34 -178
-91 -245 -252 -295 -142 -44 -193 -68 -232 -111 -44 -49 -51 -95 -30 -213 19
-112 10 -162 -35 -208 -36 -36 -63 -36 -158 3 -94 38 -151 36 -204 -4 -22 -17
-47 -27 -69 -27 -42 0 -343 99 -419 137 -82 43 -100 75 -100 188 0 87 -1 92
-27 117 -16 13 -75 48 -133 75 -112 55 -217 139 -275 223 l-29 42 -34 -38
c-58 -69 -151 -214 -198 -310 l-46 -94 21 -34 c49 -78 125 -129 315 -210 146
-63 210 -101 260 -156 38 -43 49 -72 44 -116 -2 -22 -18 -40 -65 -75 -71 -53
-101 -86 -133 -149 -20 -38 -24 -67 -30 -186 -8 -165 -25 -208 -98 -251 -36
-21 -52 -25 -102 -21 -80 6 -133 43 -182 127 -40 70 -85 121 -105 121 -17 0
-17 0 11 -105 80 -297 253 -578 476 -772 40 -34 76 -63 80 -63 3 0 32 51 63
114 87 174 172 250 282 250 41 0 73 -11 170 -57 124 -58 184 -74 232 -63 17 5
61 41 108 91 48 49 93 87 109 91 36 9 78 -11 151 -71 75 -60 108 -76 255 -120
68 -20 148 -48 177 -61 79 -38 159 -116 180 -175 10 -27 20 -49 24 -49 26 0
289 236 289 260 0 6 -13 10 -29 10 -46 0 -153 37 -204 71 -126 83 -188 220
-141 310 8 17 45 50 84 75 115 74 129 106 85 194 -28 55 -29 68 -14 123 14 53
69 110 132 137 49 21 61 22 197 16 79 -3 175 -9 212 -13 l68 -6 0 142 c0 77
-2 141 -4 141 -3 0 -56 -37 -119 -83 -139 -102 -166 -114 -207 -97 -38 16
-304 296 -327 345 -16 34 -16 39 1 93 10 31 20 63 22 70 2 7 -4 49 -12 95 -20
105 -11 136 62 223 82 96 124 203 124 313 0 32 -7 42 -67 94 -37 31 -72 56
-78 56 -5 -1 -20 -4 -32 -6z m-1045 -1211 c12 -12 21 -41 26 -76 8 -71 26
-100 77 -120 55 -22 103 -20 205 10 187 56 317 26 374 -87 27 -52 26 -133 0
-177 -29 -48 -78 -65 -180 -64 -126 2 -153 -8 -230 -88 -38 -40 -77 -71 -94
-76 -43 -10 -91 20 -142 92 -53 74 -75 89 -156 110 -162 42 -185 101 -95 247
24 39 58 98 76 129 30 54 91 118 111 118 6 0 18 -8 28 -18z"/>
<path d="M1573 1838 c-11 -13 -34 -48 -50 -78 -17 -30 -52 -91 -77 -135 -72
-126 -60 -173 51 -194 83 -17 116 -34 154 -82 19 -23 53 -62 75 -86 60 -62 78
-59 173 31 88 84 101 89 241 90 111 1 142 15 167 74 46 110 -59 232 -198 232
-21 0 -93 -13 -161 -30 -143 -35 -159 -36 -213 -11 -58 26 -95 73 -95 121 0
48 -15 90 -33 90 -7 0 -23 -10 -34 -22z"/>
<path d="M2885 2895 c-21 -126 -53 -196 -130 -286 -64 -75 -73 -110 -52 -216
15 -77 15 -89 1 -126 -25 -68 -27 -76 -20 -101 8 -31 279 -328 312 -341 16 -6
34 -6 52 1 42 16 262 183 262 199 0 38 -43 230 -71 314 -60 185 -178 394 -311
552 l-36 43 -7 -39z"/>
<path d="M6725 2328 c-4 -331 -10 -711 -14 -843 -4 -132 -5 -243 -3 -247 2 -5
161 -8 353 -8 l350 0 -8 433 c-4 237 -8 617 -8 842 l0 411 -260 1 c-143 0
-292 4 -331 8 l-71 7 -8 -604z"/>
<path d="M16145 2925 c-5 -2 -204 -5 -441 -7 l-431 -4 -6 -836 c-5 -687 -3
-839 8 -848 9 -8 106 -8 351 0 187 5 475 10 640 10 233 0 303 3 306 12 3 7 2
103 -1 213 l-6 200 -327 -3 -328 -4 0 126 0 126 118 1 c154 0 461 14 467 21 3
3 2 80 -1 172 l-7 166 -295 0 -295 0 6 93 c4 50 9 107 13 125 l7 32 308 0 309
0 5 23 c3 12 4 103 3 202 l-3 180 -195 2 c-107 1 -199 0 -205 -2z"/>
<path d="M16715 2903 c-11 -41 -7 -1665 4 -1676 11 -11 1205 -3 1239 8 l24 8
-4 216 c-2 128 -7 219 -13 223 -5 4 -130 8 -276 8 -170 0 -278 4 -298 11 l-32
11 5 282 c19 939 19 904 -1 910 -52 17 -192 25 -404 26 l-237 0 -7 -27z"/>
<path d="M20725 2903 c-9 -32 -8 -1660 0 -1674 7 -11 1826 -11 1844 0 7 5 28
64 46 132 l32 124 230 3 230 2 16 -50 c9 -28 22 -81 28 -118 6 -37 16 -73 21
-79 8 -10 88 -13 339 -13 180 0 330 4 333 9 12 19 -515 1641 -542 1667 -11 11
-89 14 -422 14 l-409 0 -190 -577 c-104 -318 -212 -648 -239 -733 l-49 -155
-8 76 c-4 42 -4 91 0 109 5 23 3 35 -6 41 -8 5 -134 9 -280 9 -170 0 -278 4
-298 11 l-32 11 5 282 c19 939 19 904 -1 910 -52 17 -192 25 -404 26 l-237 0
-7 -27z m2188 -360 c8 -16 17 -41 20 -58 3 -16 28 -129 55 -250 28 -121 53
-247 57 -280 3 -33 9 -70 12 -82 l5 -23 -181 0 c-115 0 -181 4 -181 10 0 19
61 285 107 465 63 252 76 278 106 218z"/>
<path d="M24273 2921 c-199 -4 -365 -10 -370 -14 -21 -22 -34 -1637 -13 -1662
10 -13 58 -15 286 -15 l274 0 0 441 c0 403 1 440 16 437 16 -3 119 -266 288
-732 l50 -136 383 0 383 0 0 824 c0 453 -3 831 -6 840 -5 14 -38 16 -265 16
l-259 0 0 -142 c0 -357 -13 -758 -25 -758 -11 0 -172 408 -293 745 -38 105
-63 160 -72 161 -8 0 -178 -2 -377 -5z"/>
<path d="M26173 2921 c-199 -4 -365 -10 -370 -14 -21 -22 -34 -1637 -13 -1662
10 -13 58 -15 286 -15 l274 0 0 441 c0 403 1 440 16 437 16 -3 119 -266 288
-732 l50 -136 383 0 383 0 0 824 c0 453 -3 831 -6 840 -5 14 -38 16 -265 16
l-259 0 0 -142 c0 -357 -13 -758 -25 -758 -11 0 -172 408 -293 745 -38 105
-63 160 -72 161 -8 0 -178 -2 -377 -5z"/>
<path d="M28575 2925 c-5 -2 -204 -5 -441 -7 l-431 -4 -6 -836 c-5 -687 -3
-839 8 -848 9 -8 106 -8 351 0 187 5 475 10 640 10 233 0 303 3 306 12 3 7 2
103 -1 213 l-6 200 -327 -3 -328 -4 0 126 0 126 118 1 c154 0 461 14 467 21 3
3 2 80 -1 172 l-7 166 -295 0 -295 0 6 93 c4 50 9 107 13 125 l7 32 308 0 309
0 5 23 c3 12 4 103 3 202 l-3 180 -195 2 c-107 1 -199 0 -205 -2z"/>
<path d="M5101 2343 c-168 -512 -290 -893 -335 -1049 -10 -38 -11 -55 -3 -63
13 -13 604 -15 626 -2 7 5 28 64 46 132 l32 124 230 3 230 2 16 -50 c9 -28 22
-81 28 -118 6 -37 16 -73 21 -79 8 -10 88 -13 339 -13 180 0 330 4 333 9 12
19 -515 1641 -542 1667 -11 11 -89 14 -422 14 l-409 0 -190 -577z m632 200 c8
-16 17 -41 20 -58 3 -16 28 -129 55 -250 28 -121 53 -247 57 -280 3 -33 9 -70
12 -82 l5 -23 -181 0 c-115 0 -181 4 -181 10 0 19 61 285 107 465 63 252 76
278 106 218z"/>
<path d="M9038 2913 l-578 -3 0 -188 c0 -103 3 -204 6 -224 l6 -36 179 -4
c126 -2 182 -7 191 -16 23 -23 26 -135 15 -659 -8 -422 -8 -525 3 -538 11 -13
57 -15 346 -15 l334 0 0 620 0 620 200 0 200 0 0 219 c0 190 -2 220 -16 225
-9 3 -82 5 -162 4 -81 -2 -407 -4 -724 -5z"/>
<path d="M11941 2343 c-104 -318 -217 -665 -251 -772 -33 -107 -62 -196 -64
-198 -4 -4 -18 91 -37 252 -27 234 -103 373 -239 437 -27 13 -49 25 -50 28 0
3 26 19 57 35 73 38 172 135 202 197 50 105 46 261 -10 375 -48 99 -142 167
-271 198 -52 12 -167 15 -650 15 l-588 0 -1 -62 c0 -35 -2 -413 -5 -841 l-5
-777 333 2 333 3 3 294 2 293 68 -7 c120 -12 148 -40 164 -161 26 -207 49
-346 62 -379 l15 -36 292 2 c202 1 294 -2 302 -10 13 -13 604 -15 626 -2 7 5
28 64 46 132 l32 124 230 3 230 2 16 -50 c9 -28 22 -81 28 -118 6 -37 16 -73
21 -79 8 -10 88 -13 339 -13 180 0 330 4 333 9 12 19 -515 1641 -542 1667 -11
11 -89 14 -422 14 l-409 0 -190 -577z m-1006 203 c68 -31 95 -71 95 -140 0
-128 -113 -216 -276 -216 l-52 0 -7 91 c-4 50 -4 138 0 196 l7 106 89 -6 c65
-4 104 -13 144 -31z m1638 -3 c8 -16 17 -41 20 -58 3 -16 28 -129 55 -250 28
-121 53 -247 57 -280 3 -33 9 -70 12 -82 l5 -23 -181 0 c-115 0 -181 4 -181
10 0 19 61 285 107 465 63 252 76 278 106 218z"/>
<path d="M13416 2893 c29 -130 75 -298 200 -733 80 -278 161 -574 179 -658 19
-84 45 -178 57 -210 l23 -57 420 -3 c416 -2 420 -2 437 19 27 32 79 205 167
554 45 176 130 496 190 710 59 215 106 393 104 398 -6 9 -604 9 -620 -1 -15
-9 -198 -918 -229 -1134 -5 -37 -10 -48 -24 -48 -12 0 -20 10 -24 28 -7 33
-122 693 -167 952 -17 102 -36 191 -42 198 -7 9 -88 12 -343 12 l-334 0 6 -27z"/>
<path d="M19417 2910 c-203 -4 -370 -10 -372 -12 -8 -8 -10 -1603 -2 -1640 l8
-38 318 0 c243 0 321 3 329 13 6 7 10 112 11 269 1 141 4 264 7 271 4 12 41
16 182 20 204 5 287 22 418 87 141 69 228 177 265 330 7 30 13 105 13 165 -1
124 -26 214 -84 305 -63 99 -187 185 -306 214 -81 20 -343 25 -787 16z m443
-351 c96 -21 150 -92 150 -198 -1 -145 -86 -217 -292 -245 l-38 -5 0 168 c0
93 3 196 6 230 l7 61 58 0 c32 0 81 -5 109 -11z"/>
<path d="M29129 2848 c0 -35 -2 -413 -5 -841 l-5 -777 333 2 333 3 3 294 2
293 68 -7 c120 -12 148 -40 164 -161 25 -206 49 -346 62 -378 l15 -36 249 0
c137 0 283 3 325 6 67 6 75 9 67 24 -12 23 -47 221 -55 310 -21 254 -103 416
-245 482 -27 13 -49 25 -50 28 0 3 26 19 57 35 73 38 172 135 202 197 50 105
46 261 -10 375 -48 99 -142 167 -271 198 -52 12 -167 15 -650 15 l-588 0 -1
-62z m896 -302 c68 -31 95 -71 95 -140 0 -128 -113 -216 -276 -216 l-52 0 -7
91 c-4 50 -4 138 0 196 l7 106 89 -6 c65 -4 104 -13 144 -31z"/>
<path d="M356 2336 c-57 -175 -70 -264 -70 -481 -1 -267 3 -287 62 -330 26
-18 58 -52 72 -75 92 -151 168 -197 263 -156 73 31 97 88 97 237 0 56 6 116
15 146 20 68 70 140 125 181 85 64 90 70 90 108 0 76 -81 139 -297 230 -157
66 -244 122 -288 182 -16 22 -33 41 -36 41 -3 1 -18 -37 -33 -83z"/>
<path d="M7587 2053 c-4 -3 -7 -93 -7 -198 0 -147 3 -195 13 -203 18 -15 819
6 829 22 9 14 10 241 2 325 l-7 61 -412 0 c-226 0 -415 -3 -418 -7z"/>
<path d="M18027 2053 c-4 -3 -7 -93 -7 -198 0 -147 3 -195 13 -203 18 -15 819
6 829 22 9 14 10 241 2 325 l-7 61 -412 0 c-226 0 -415 -3 -418 -7z"/>
<path d="M2855 1678 c-52 -19 -87 -50 -106 -92 -25 -55 -24 -87 6 -146 44 -87
29 -127 -80 -200 -41 -28 -82 -64 -90 -80 -49 -96 22 -228 162 -299 53 -27
169 -54 199 -47 38 10 162 193 228 338 65 144 136 396 136 486 0 28 -2 30 -52
36 -117 12 -373 16 -403 4z"/>
<path d="M1837 961 c-10 -4 -42 -36 -70 -71 -102 -126 -163 -135 -340 -47 -62
30 -131 58 -153 62 -90 14 -176 -36 -247 -143 -41 -62 -113 -210 -105 -217 2
-1 36 -24 76 -50 150 -96 335 -169 527 -207 156 -31 404 -31 560 0 169 33 317
87 453 165 70 39 72 42 66 71 -17 80 -72 145 -162 190 -26 13 -103 40 -171 60
-140 42 -191 65 -277 129 -94 69 -112 76 -157 58z"/>
</g>
</svg>
